<svg width="142" height="172" viewBox="0 0 142 172" fill="none" xmlns="http://www.w3.org/2000/svg">
<ellipse cx="50.0257" cy="43.104" rx="46.2503" ry="43.104" fill="#FFA0B0"/>
<path fill-rule="evenodd" clip-rule="evenodd" d="M83.0838 73.505C76.1705 77.3395 68.0934 79.5419 59.4644 79.5419C33.9211 79.5419 13.2141 60.2435 13.2141 36.4379C13.2141 24.7039 18.245 14.065 26.4062 6.29256C12.855 13.8088 3.77539 27.596 3.77539 43.3597C3.77539 67.1654 24.4823 86.4637 50.0257 86.4637C62.9785 86.4637 74.6877 81.5012 83.0838 73.505Z" fill="#FF8090"/>
<rect y="52.8575" width="98.7931" height="118.929" rx="3" fill="#C4C4C4"/>
<path fill-rule="evenodd" clip-rule="evenodd" d="M9.91781 52.8575C8.26278 52.8596 6.92178 54.2019 6.92178 55.8575V168.787C6.92178 170.444 8.26493 171.787 9.92179 171.787H3.62915C1.9723 171.787 0.62915 170.444 0.62915 168.787V55.8575C0.62915 54.2006 1.9723 52.8575 3.62915 52.8575H9.91781Z" fill="#BABABA"/>
<rect x="20.7654" y="52.8575" width="6.29255" height="118.929" fill="#E6E6E6"/>
<rect x="47.1941" y="52.8575" width="6.29255" height="118.929" fill="#E6E6E6"/>
<rect x="74.8816" y="52.8575" width="6.29255" height="118.929" fill="#E6E6E6"/>
<rect x="103.934" y="78.0276" width="98.7931" height="6.92181" rx="3.4609" transform="rotate(67.5925 103.934 78.0276)" fill="#B1ACAC"/>
<rect x="114.755" y="119.843" width="9.43883" height="10.6973" rx="4.71941" transform="rotate(-24.4296 114.755 119.843)" fill="#B1ACAC"/>
<ellipse cx="23.5971" cy="57.2623" rx="16.6753" ry="10.6973" fill="#D00050"/>
<path fill-rule="evenodd" clip-rule="evenodd" d="M35.6225 64.7993C38.6154 62.8656 40.4645 60.2025 40.4645 57.2623C40.4645 51.3543 32.9987 46.5649 23.7892 46.5649C17.2116 46.5649 11.5235 49.008 8.80957 52.5569C11.8305 50.6051 16.0167 49.3966 20.6429 49.3966C29.8524 49.3966 37.3182 54.1859 37.3182 60.0939C37.3182 61.7823 36.7084 63.3793 35.6225 64.7993Z" fill="#B00040"/>
<ellipse cx="77.7129" cy="57.2623" rx="16.6753" ry="10.6973" fill="#D00050"/>
<path fill-rule="evenodd" clip-rule="evenodd" d="M92.5917 52.4273C89.6432 50.738 85.7527 49.7112 81.4884 49.7112C72.2789 49.7112 64.8131 54.5006 64.8131 60.4085C64.8131 62.1485 65.4607 63.7914 66.6096 65.2435C63.1902 63.2845 61.0376 60.4347 61.0376 57.2623C61.0376 51.3543 68.5034 46.5649 77.7129 46.5649C84.2101 46.5649 89.8395 48.9487 92.5917 52.4273Z" fill="#B00040"/>
</svg>
